<svg width="32" height="32" viewBox="0 0 32 32" fill="none" xmlns="http://www.w3.org/2000/svg">
  <defs>
    <!-- Gradient for the heart -->
    <linearGradient id="heartGradient" x1="0%" y1="0%" x2="100%" y2="100%">
      <stop offset="0%" style="stop-color:#14B8A6;stop-opacity:1" />
      <stop offset="50%" style="stop-color:#0F766E;stop-opacity:1" />
      <stop offset="100%" style="stop-color:#0D9488;stop-opacity:1" />
    </linearGradient>
    
    <!-- Background gradient -->
    <linearGradient id="backgroundGradient" x1="0%" y1="0%" x2="100%" y2="100%">
      <stop offset="0%" style="stop-color:#F0FDFA;stop-opacity:1" />
      <stop offset="100%" style="stop-color:#CCFBF1;stop-opacity:1" />
    </linearGradient>
    
    <!-- Drop shadow filter -->
    <filter id="shadow" x="-20%" y="-20%" width="140%" height="140%">
      <feDropShadow dx="0" dy="2" stdDeviation="2" flood-color="#00000015"/>
    </filter>
  </defs>
  
  <!-- Background Circle with gradient -->
  <circle cx="16" cy="16" r="15" fill="url(#backgroundGradient)" stroke="#14B8A6" stroke-width="1"/>
  
  <!-- Heart Shape - properly centered -->
  <path d="M16 24.5l-1.45-1.32C9.4 18.36 6 15.28 6 11.5 6 8.42 8.42 6 11.5 6c1.74 0 3.41.81 4.5 2.09C17.09 6.81 18.76 6 20.5 6 23.58 6 26 8.42 26 11.5c0 3.78-3.4 6.86-8.55 11.68L16 24.5z" 
        fill="url(#heartGradient)" 
        filter="url(#shadow)"
        stroke="#0F766E" 
        stroke-width="0.3"/>
  
  <!-- Highlight on heart for depth -->
  <ellipse cx="13" cy="11" rx="1.5" ry="1" fill="#5EEAD4" opacity="0.6"/>
</svg>
